<?xml version="1.0" encoding="utf-8"?>
<!-- Generator: Adobe Illustrator 21.1.0, SVG Export Plug-In . SVG Version: 6.00 Build 0)  -->
<svg version="1.1" id="Слой_1" xmlns="http://www.w3.org/2000/svg" xmlns:xlink="http://www.w3.org/1999/xlink" x="0px" y="0px"
	 viewBox="0 0 150 50" style="enable-background:new 0 0 150 50;" xml:space="preserve">
<style type="text/css">
	.st0{fill:#15B8BC;}
	.st1{fill:#00E0D0;}
</style>
<g>
	<path class="st0" d="M26.3,21c-0.6,2.4-1.3,4.8-1.9,7.2c-1,3.7-2,7.4-2.9,11c-0.1,0.4-0.3,0.5-0.7,0.5c-1.8,0-3.6,0-5.3,0
		c-0.4,0-0.6-0.1-0.7-0.6c-1.6-5.9-3.1-11.9-4.7-17.8c0-0.1,0-0.3-0.2-0.4c0,0.2,0,0.4,0,0.6c0,5.8,0,11.7,0,17.5
		c0,0.5-0.2,0.7-0.7,0.7c-2.2,0-4.3,0-6.5,0c-0.4,0-0.6-0.1-0.6-0.6c0-9.7,0-19.4,0-29.1c0-0.4,0.1-0.5,0.5-0.5c3.5,0,6.9,0,10.4,0
		c0.5,0,0.6,0.2,0.7,0.6c1.4,5.3,2.9,10.5,4.3,15.8c0,0.1,0.1,0.3,0.2,0.5c0.1-0.2,0.1-0.4,0.2-0.5c1.4-5.3,2.9-10.5,4.3-15.8
		c0.1-0.5,0.3-0.6,0.8-0.6c3.4,0,6.9,0,10.3,0c0.4,0,0.6,0.1,0.6,0.6c0,9.7,0,19.3,0,29c0,0.5-0.1,0.6-0.6,0.6c-2.3,0-4.5,0-6.8,0
		c-0.5,0-0.6-0.1-0.6-0.6c0-6,0-11.9,0-17.9c0-0.1,0-0.2,0-0.3C26.4,21,26.3,21,26.3,21z"/>
	<path class="st1" d="M139.4,37.3c-1.2,1.6-2.7,2.4-4.5,2.8c-1.5,0.3-3.1,0.3-4.6-0.1c-3.5-0.9-5-3.8-4.6-7.1c0.3-3,2.3-4.4,5-5.1
		c1.6-0.5,3.4-0.5,5-0.8c0.8-0.1,1.6-0.3,2.4-0.6c0.9-0.4,1.2-0.9,1.1-1.8c-0.1-1-0.6-1.5-1.5-1.7c-1.8-0.3-2.9,0.3-3.5,2.1
		c-0.1,0.3-0.2,0.4-0.5,0.4c-2.2,0-4.5,0-6.7,0c-0.5,0-0.4-0.3-0.4-0.6c0.4-3.1,2.2-5.1,5-6.3c1.3-0.5,2.7-0.8,4.1-0.8
		c2-0.1,4-0.1,5.9,0.5c3.4,0.9,5.5,3.5,5.5,7.1s0,7.3,0,10.9c0,0.7,0,1.3,0.1,2c0.1,0.5,0.2,0.9,0.5,1.2c0.1,0.1,0.2,0.2,0.1,0.3
		c-0.1,0.1-0.2,0.1-0.3,0.1c-2.4,0-4.8,0-7.3,0c-0.3,0-0.4-0.2-0.5-0.4C139.7,38.7,139.6,38.1,139.4,37.3z M139.5,31.3L139.5,31.3
		c0-0.3,0-0.5,0-0.8s0-0.5-0.4-0.3c-0.9,0.4-1.9,0.7-2.8,0.9c-0.6,0.1-1.2,0.3-1.8,0.6c-0.8,0.4-1.2,1.1-1.1,2
		c0.1,0.9,0.6,1.4,1.4,1.7c2.2,0.7,4.4-0.6,4.6-2.9C139.5,32.1,139.5,31.7,139.5,31.3z"/>
	<path class="st1" d="M48.7,40.4c-3.1,0-5.9-0.8-8.2-2.9C37.7,35,36.7,31.7,37,28c0.3-4.2,2.3-7.4,6.1-9.2c3.6-1.7,7.4-1.7,11-0.1
		c4,1.8,6,5.1,6.3,9.3c0.2,2.3-0.2,4.4-1.2,6.5c-1.8,3.4-4.7,5.2-8.4,5.7C50.1,40.4,49.4,40.4,48.7,40.4z M52.3,28.8
		c0-1.4-0.3-3-0.9-4c-0.8-1.5-2.2-2.1-3.7-1.7c-1.2,0.4-1.8,1.3-2.2,2.4c-0.6,1.8-0.6,3.6-0.4,5.4c0.1,1,0.4,2,0.9,2.8
		s1.2,1.3,2.2,1.4c1.7,0.2,2.9-0.7,3.5-2.5C52.2,31.5,52.3,30.3,52.3,28.8z"/>
	<path class="st1" d="M71.8,24.3c-0.2-0.1-0.3-0.1-0.5-0.1c-2.6,0-5.2,0-7.8,0c-0.4,0-0.5-0.1-0.5-0.5c0-1.7,0-3.3,0-5
		c0-0.4,0.1-0.5,0.5-0.5c6,0,12,0,18,0c0.4,0,0.5,0.2,0.5,0.5c0,1.5,0,3,0,4.5c0,0.4-0.1,0.6-0.4,0.9c-3.1,3.1-6.1,6.4-9.3,9.3
		c-0.1,0.1-0.2,0.1-0.1,0.2c1,0,2.1,0,3.1,0c2.3,0,4.6,0,6.9,0c0.4,0,0.5,0.2,0.5,0.5c0,1.7,0,3.3,0,5c0,0.4-0.1,0.5-0.5,0.5
		c-6.4,0-12.9,0-19.3,0c-0.4,0-0.5-0.1-0.5-0.5c0-1.6,0-3.2,0-4.8c0-0.3,0.1-0.5,0.3-0.8C65.8,30.4,68.7,27.3,71.8,24.3
		C71.7,24.4,71.7,24.4,71.8,24.3z"/>
	<path class="st0" d="M114.9,9.6c-0.6,1.8-1.3,3.6-1.9,5.4c-2.9,8-5.7,16.1-8.6,24.1c-0.2,0.5-0.4,0.6-0.9,0.6c-2.2,0-4.4,0-6.6,0
		c-0.4,0-0.5-0.1-0.4-0.5c3.5-9.7,6.9-19.5,10.4-29.2c0.1-0.2,0.1-0.5,0.4-0.5C109.9,9.6,112.4,9.6,114.9,9.6z"/>
	<path class="st0" d="M128.2,9.6c-0.3,0.8-0.5,1.5-0.8,2.3c-3.2,9.1-6.5,18.2-9.7,27.4c-0.1,0.4-0.3,0.5-0.7,0.5c-2.2,0-4.5,0-6.7,0
		c-0.4,0-0.6,0-0.4-0.5c3.5-9.7,6.9-19.5,10.4-29.2c0.1-0.2,0.1-0.4,0.4-0.4C123.2,9.6,125.7,9.6,128.2,9.6z"/>
	<path class="st0" d="M89.9,26.3c-1.2,0-2.4,0-3.6,0c-0.3,0-0.5-0.1-0.5-0.4c0-2.4,0-4.8,0-7.2c0-0.3,0.1-0.5,0.5-0.5
		c2.4,0,4.9,0,7.3,0c0.3,0,0.5,0.1,0.5,0.4c0,2.4,0,4.8,0,7.2c0,0.4-0.1,0.5-0.5,0.5C92.4,26.3,91.1,26.3,89.9,26.3z"/>
	<path class="st0" d="M90,31.7c1.2,0,2.4,0,3.6,0c0.4,0,0.5,0.1,0.5,0.5c0,2.4,0,4.7,0,7.1c0,0.4-0.1,0.5-0.5,0.5
		c-2.4,0-4.9,0-7.3,0c-0.4,0-0.4-0.1-0.4-0.5c0-2.4,0-4.8,0-7.1c0-0.4,0.1-0.5,0.5-0.5C87.5,31.7,88.8,31.7,90,31.7z"/>
</g>
</svg>
